<svg width="14" height="14" viewBox="0 0 14 14" fill="none" xmlns="http://www.w3.org/2000/svg">
<g clip-path="url(#clip0_369_225)">
<path fill-rule="evenodd" clip-rule="evenodd" d="M7.00025 0.5C6.79291 0.5 6.58975 0.556213 6.41188 0.662265C6.40497 0.666387 6.39815 0.670676 6.39145 0.675127L0.936062 4.29586L0.934815 4.29669C0.532834 4.56522 0.413607 5.02631 0.56705 5.41771C0.715224 5.79567 1.09148 6.05448 1.54486 6.05448H1.63452V10.0064H1.46154C0.846213 10.0064 0.375 10.5138 0.375 11.1051V12.5263C0.375 13.1176 0.846213 13.625 1.46154 13.625H12.5385C13.1538 13.625 13.625 13.1176 13.625 12.5263V11.1051C13.625 10.5138 13.1538 10.0064 12.5385 10.0064H12.3655V6.05448H12.4556C12.909 6.05448 13.2853 5.79567 13.4334 5.41771C13.5869 5.02631 13.4677 4.56522 13.0657 4.29669L13.0644 4.29586L7.60905 0.675127C7.60234 0.670676 7.59553 0.666387 7.58862 0.662265C7.41075 0.556213 7.20759 0.5 7.00025 0.5ZM10.6155 6.05448H9.37183V10.0064H10.6155V6.05448ZM7.62183 6.05448H6.37817V10.0064H7.62183V6.05448ZM4.62817 6.05448H3.38452V10.0064H4.62817V6.05448ZM1.625 11.2564V12.375H12.375V11.2564H1.625Z" fill="#454545"/>
</g>
<defs>
<clipPath id="clip0_369_225">
<rect width="14" height="14" fill="white"/>
</clipPath>
</defs>
</svg>
