<svg width="16" height="16" viewBox="0 0 16 16" fill="none" xmlns="http://www.w3.org/2000/svg">
<path d="M0.944034 2.51199C1.37768 2.51199 1.72803 2.86234 1.72803 3.29599V9.56799H7.21603V5.64799C7.21603 5.21434 7.56638 4.86399 8.00003 4.86399H13.488C14.7865 4.86399 15.84 5.91749 15.84 7.21599V12.704C15.84 13.1376 15.4897 13.488 15.056 13.488C14.6224 13.488 14.272 13.1376 14.272 12.704V11.92H1.72803V12.704C1.72803 13.1376 1.37768 13.488 0.944034 13.488C0.510384 13.488 0.160034 13.1376 0.160034 12.704V3.29599C0.160034 2.86234 0.510384 2.51199 0.944034 2.51199ZM4.47203 4.86399C5.98084 4.86399 6.92385 6.49733 6.16944 7.80399C5.81932 8.41042 5.17227 8.78399 4.47203 8.78399C2.96323 8.78399 2.02022 7.15066 2.77462 5.84399C3.12474 5.23757 3.77179 4.86399 4.47203 4.86399Z" fill="black"/>
</svg>
