<svg width="16" height="12" viewBox="0 0 16 12" fill="none" xmlns="http://www.w3.org/2000/svg">
<path d="M3.45077 0.5V1.875M11.7129 0.5V1.875M0.5 10.125V3.25C0.5 2.88533 0.68653 2.53559 1.01856 2.27773C1.35058 2.01987 1.80091 1.875 2.27046 1.875H12.8933C13.3628 1.875 13.8131 2.01987 14.1452 2.27773C14.4772 2.53559 14.6637 2.88533 14.6637 3.25V10.125M0.5 10.125C0.5 10.4897 0.68653 10.8394 1.01856 11.0973C1.35058 11.3551 1.80091 11.5 2.27046 11.5H12.8933C13.3628 11.5 13.8131 11.3551 14.1452 11.0973C14.4772 10.8394 14.6637 10.4897 14.6637 10.125M0.5 10.125V5.54167C0.5 5.17699 0.68653 4.82726 1.01856 4.56939C1.35058 4.31153 1.80091 4.16667 2.27046 4.16667H12.8933C13.3628 4.16667 13.8131 4.31153 14.1452 4.56939C14.4772 4.82726 14.6637 5.17699 14.6637 5.54167V10.125" stroke="black" stroke-linecap="round" stroke-linejoin="round"/>
</svg>
