<svg width="18" height="18" viewBox="0 0 18 18" fill="none" xmlns="http://www.w3.org/2000/svg">
<path d="M0.179932 13.7239C0.179932 14.3087 0.412244 14.8695 0.825757 15.283C1.23927 15.6966 1.80012 15.9289 2.38493 15.9289H15.6149C16.1997 15.9289 16.7606 15.6966 17.1741 15.283C17.5876 14.8695 17.8199 14.3087 17.8199 13.7239V7.66016H0.179932V13.7239ZM2.77868 10.7314C2.77868 10.4181 2.90314 10.1176 3.12466 9.89613C3.34621 9.67458 3.64669 9.55012 3.95993 9.55012H5.84993C6.16317 9.55012 6.46366 9.67458 6.68521 9.89613C6.90672 10.1176 7.03118 10.4181 7.03118 10.7314V11.5189C7.03118 11.8321 6.90672 12.1326 6.68521 12.3541C6.46366 12.5757 6.16317 12.7001 5.84993 12.7001H3.95993C3.64669 12.7001 3.34621 12.5757 3.12466 12.3541C2.90314 12.1326 2.77868 11.8321 2.77868 11.5189V10.7314Z" fill="#454545"/>
<path d="M15.6149 2.07031H2.38493C1.80012 2.07031 1.23927 2.30262 0.825757 2.71614C0.412244 3.12965 0.179932 3.6905 0.179932 4.27531V5.29902H17.8199V4.27531C17.8199 3.6905 17.5876 3.12965 17.1741 2.71614C16.7606 2.30262 16.1997 2.07031 15.6149 2.07031Z" fill="#454545"/>
</svg>
