<svg width="21" height="21" viewBox="0 0 21 21" fill="none" xmlns="http://www.w3.org/2000/svg">
<path d="M10.5 13.125C11.1962 13.125 11.8639 12.8484 12.3562 12.3562C12.8484 11.8639 13.125 11.1962 13.125 10.5C13.125 9.80381 12.8484 9.13613 12.3562 8.64384C11.8639 8.15156 11.1962 7.875 10.5 7.875C9.80381 7.875 9.13613 8.15156 8.64384 8.64384C8.15156 9.13613 7.875 9.80381 7.875 10.5C7.875 11.1962 8.15156 11.8639 8.64384 12.3562C9.13613 12.8484 9.80381 13.125 10.5 13.125Z" fill="#454545"/>
<path d="M0 5.25C0 4.9019 0.138281 4.56806 0.384422 4.32192C0.630564 4.07578 0.964403 3.9375 1.3125 3.9375H19.6875C20.0356 3.9375 20.3694 4.07578 20.6156 4.32192C20.8617 4.56806 21 4.9019 21 5.25V15.75C21 16.0981 20.8617 16.4319 20.6156 16.6781C20.3694 16.9242 20.0356 17.0625 19.6875 17.0625H1.3125C0.964403 17.0625 0.630564 16.9242 0.384422 16.6781C0.138281 16.4319 0 16.0981 0 15.75V5.25ZM3.9375 5.25C3.9375 5.94619 3.66094 6.61387 3.16866 7.10616C2.67637 7.59844 2.00869 7.875 1.3125 7.875V13.125C2.00869 13.125 2.67637 13.4016 3.16866 13.8938C3.66094 14.3861 3.9375 15.0538 3.9375 15.75H17.0625C17.0625 15.0538 17.3391 14.3861 17.8313 13.8938C18.3236 13.4016 18.9913 13.125 19.6875 13.125V7.875C18.9913 7.875 18.3236 7.59844 17.8313 7.10616C17.3391 6.61387 17.0625 5.94619 17.0625 5.25H3.9375Z" fill="#454545"/>
</svg>
