<svg width="18" height="18" viewBox="0 0 18 18" fill="none" xmlns="http://www.w3.org/2000/svg">
<g clip-path="url(#clip0_346_1430)">
<path fill-rule="evenodd" clip-rule="evenodd" d="M10.3349 0.882356C11.3243 0.63888 12.3947 1.00056 12.9396 1.93171C13.0796 2.17088 13.233 2.44973 13.3955 2.77073C12.256 2.69549 10.5659 2.62427 8.24985 2.62427C6.94361 2.62427 5.83646 2.64692 4.9149 2.68017C6.64792 1.95711 8.53403 1.3255 10.3349 0.882356ZM3.02154 17.2826C4.13764 17.3598 5.8518 17.4368 8.25 17.4368C10.6482 17.4368 12.3624 17.3598 13.4785 17.2826C14.7079 17.1975 15.6777 16.2637 15.7786 15.0243C15.7978 14.7875 15.8169 14.524 15.8347 14.2327C15.4865 14.2428 15.0843 14.2493 14.625 14.2493C13.9971 14.2493 13.4761 14.2372 13.0538 14.2203C11.6891 14.1656 10.5873 13.1206 10.5253 11.7203C10.5101 11.378 10.5 10.9724 10.5 10.4993C10.5 10.0261 10.5101 9.62057 10.5253 9.27823C10.5873 7.87791 11.6891 6.83297 13.0538 6.77826C13.4761 6.76131 13.9971 6.74927 14.625 6.74927C15.0843 6.74927 15.4865 6.75572 15.8347 6.76581C15.8169 6.47454 15.7978 6.21099 15.7786 5.97422C15.6777 4.73481 14.7079 3.80102 13.4785 3.71597C12.3624 3.63876 10.6482 3.56177 8.25 3.56177C5.8518 3.56177 4.13764 3.63876 3.02154 3.71597C1.79212 3.80102 0.822353 4.73481 0.72144 5.97422C0.639686 6.97836 0.5625 8.46501 0.5625 10.4993C0.5625 12.5335 0.639686 14.0202 0.72144 15.0243C0.822353 16.2637 1.79212 17.1975 3.02154 17.2826ZM11.6491 11.6705C11.6846 12.469 12.3003 13.0642 13.0989 13.0962C13.5056 13.1125 14.0115 13.1243 14.625 13.1243C15.2385 13.1243 15.7444 13.1125 16.1511 13.0962C16.9497 13.0642 17.5655 12.469 17.6008 11.6705C17.6152 11.3454 17.625 10.9564 17.625 10.4993C17.625 10.0421 17.6152 9.65316 17.6008 9.32803C17.5655 8.52954 16.9497 7.93434 16.1511 7.90236C15.7444 7.88604 15.2385 7.87427 14.625 7.87427C14.0115 7.87427 13.5056 7.88604 13.0989 7.90232C12.3003 7.93434 11.6846 8.52954 11.6491 9.32803C11.6348 9.65316 11.625 10.0421 11.625 10.4993C11.625 10.9564 11.6348 11.3454 11.6491 11.6705ZM14.25 9.56177C14.5606 9.56177 14.8125 9.81362 14.8125 10.1243V10.8743C14.8125 11.1849 14.5606 11.4368 14.25 11.4368C13.9394 11.4368 13.6875 11.1849 13.6875 10.8743V10.1243C13.6875 9.81362 13.9394 9.56177 14.25 9.56177Z" fill="#454545"/>
</g>
<defs>
<clipPath id="clip0_346_1430">
<rect width="18" height="18" fill="white"/>
</clipPath>
</defs>
</svg>
