<svg width="16" height="16" viewBox="0 0 16 16" fill="none" xmlns="http://www.w3.org/2000/svg">
<path d="M3.81873 5.33124C3.81873 6.04401 4.10187 6.72758 4.60588 7.23159C5.10988 7.73559 5.79346 8.01874 6.50623 8.01874C7.21899 8.01874 7.90257 7.73559 8.40658 7.23159C8.91058 6.72758 9.19373 6.04401 9.19373 5.33124C9.19373 4.61847 8.91058 3.93489 8.40658 3.43089C7.90257 2.92688 7.21899 2.64374 6.50623 2.64374C5.79346 2.64374 5.10988 2.92688 4.60588 3.43089C4.10187 3.93489 3.81873 4.61847 3.81873 5.33124Z" stroke="black" stroke-miterlimit="10"/>
<path d="M1.4375 13.9812L1.86875 11.8188C2.08116 10.7443 2.65931 9.77657 3.50482 9.08033C4.35033 8.38409 5.41097 8.00233 6.50625 8C7.59894 8.00429 8.65637 8.38716 9.49851 9.08343C10.3406 9.77971 10.9154 10.7463 11.125 11.8188L11.5625 13.9812" stroke="black" stroke-miterlimit="10"/>
<path d="M8 7.56249C8.40447 7.83405 8.87516 7.99056 9.36171 8.01528C9.84827 8.03999 10.3324 7.93199 10.7623 7.70281C11.1922 7.47363 11.5517 7.1319 11.8024 6.71417C12.0531 6.29644 12.1856 5.81842 12.1856 5.33124C12.1856 4.84406 12.0531 4.36604 11.8024 3.94831C11.5517 3.53058 11.1922 3.18885 10.7623 2.95967C10.3324 2.73049 9.84827 2.62248 9.36171 2.6472C8.87516 2.67192 8.40447 2.82842 8 3.09999" stroke="black" stroke-miterlimit="10"/>
<path d="M14.5625 13.9812L14.125 11.8125C13.9945 11.1553 13.7256 10.5334 13.3361 9.98821C12.9465 9.44302 12.4454 8.98704 11.8659 8.6506C11.2865 8.31417 10.642 8.10499 9.97545 8.037C9.30887 7.969 8.63545 8.04374 8 8.25625" stroke="black" stroke-miterlimit="10"/>
</svg>
