<svg width="14" height="14" viewBox="0 0 14 14" fill="none" xmlns="http://www.w3.org/2000/svg">
<g clip-path="url(#clip0_390_225)">
<path fill-rule="evenodd" clip-rule="evenodd" d="M1.73483 1.73483C1.80516 1.66451 1.90054 1.625 2 1.625H4C4.34518 1.625 4.625 1.34518 4.625 1C4.625 0.654822 4.34518 0.375 4 0.375H2C1.56902 0.375 1.1557 0.546205 0.850951 0.850951C0.546205 1.1557 0.375 1.56902 0.375 2V4C0.375 4.34518 0.654822 4.625 1 4.625C1.34518 4.625 1.625 4.34518 1.625 4V2C1.625 1.90054 1.66451 1.80516 1.73483 1.73483ZM9.375 1C9.375 0.654822 9.65482 0.375 10 0.375H12C12.431 0.375 12.8443 0.546205 13.149 0.850951C13.4538 1.1557 13.625 1.56902 13.625 2V4C13.625 4.34518 13.3452 4.625 13 4.625C12.6548 4.625 12.375 4.34518 12.375 4V2C12.375 1.90054 12.3355 1.80516 12.2652 1.73483C12.1948 1.66451 12.0995 1.625 12 1.625H10C9.65482 1.625 9.375 1.34518 9.375 1ZM2.5 4C2.5 3.17157 3.17157 2.5 4 2.5H6C6.82843 2.5 7.5 3.17157 7.5 4V6C7.5 6.82843 6.82843 7.5 6 7.5H4C3.17157 7.5 2.5 6.82843 2.5 6V4ZM3.75 9.375C3.75 9.02982 3.47018 8.75 3.125 8.75C2.77982 8.75 2.5 9.02982 2.5 9.375V10.875C2.5 11.2202 2.77982 11.5 3.125 11.5H4.625C4.97018 11.5 5.25 11.2202 5.25 10.875C5.25 10.5298 4.97018 10.25 4.625 10.25H3.75V9.375ZM5 9.25C5 8.90482 5.27982 8.625 5.625 8.625H7.125C7.47018 8.625 7.75 8.90482 7.75 9.25V10.75C7.75 11.0952 7.47018 11.375 7.125 11.375C6.77982 11.375 6.5 11.0952 6.5 10.75V9.875H5.625C5.27982 9.875 5 9.59518 5 9.25ZM10 3.125C10 2.77982 9.72018 2.5 9.375 2.5C9.02982 2.5 8.75 2.77982 8.75 3.125V4.625C8.75 4.97018 9.02982 5.25 9.375 5.25H10.875C11.2202 5.25 11.5 4.97018 11.5 4.625C11.5 4.27982 11.2202 4 10.875 4H10V3.125ZM8.75 6.625C8.75 6.27982 9.02982 6 9.375 6H10.875C11.2202 6 11.5 6.27982 11.5 6.625V8.125C11.5 8.47018 11.2202 8.75 10.875 8.75C10.5298 8.75 10.25 8.47018 10.25 8.125V7.25H9.375C9.02982 7.25 8.75 6.97018 8.75 6.625ZM10 9.375C10 9.02982 9.72018 8.75 9.375 8.75C9.02982 8.75 8.75 9.02982 8.75 9.375V10.875C8.75 11.2202 9.02982 11.5 9.375 11.5H10.875C11.2202 11.5 11.5 11.2202 11.5 10.875C11.5 10.5298 11.2202 10.25 10.875 10.25H10V9.375ZM13 9.375C13.3452 9.375 13.625 9.65482 13.625 10V12C13.625 12.431 13.4538 12.8443 13.149 13.149C12.8443 13.4538 12.431 13.625 12 13.625H10C9.65482 13.625 9.375 13.3452 9.375 13C9.375 12.6548 9.65482 12.375 10 12.375H12C12.0995 12.375 12.1948 12.3355 12.2652 12.2652C12.3355 12.1948 12.375 12.0995 12.375 12V10C12.375 9.65482 12.6548 9.375 13 9.375ZM1.625 10C1.625 9.65482 1.34518 9.375 1 9.375C0.654822 9.375 0.375 9.65482 0.375 10V12C0.375 12.431 0.546205 12.8443 0.850951 13.149C1.1557 13.4538 1.56902 13.625 2 13.625H4C4.34518 13.625 4.625 13.3452 4.625 13C4.625 12.6548 4.34518 12.375 4 12.375H2C1.90054 12.375 1.80516 12.3355 1.73483 12.2652C1.66451 12.1948 1.625 12.0995 1.625 12V10Z" fill="black"/>
</g>
<defs>
<clipPath id="clip0_390_225">
<rect width="14" height="14" fill="white"/>
</clipPath>
</defs>
</svg>
